<svg xmlns="http://www.w3.org/2000/svg" width="450" height="450" viewBox="0 0 450 450" version="1.1">
	<path d="M 331.500 29.399 C 318.364 33.553, 308.845 43.636, 305.413 57.032 C 300.845 74.862, 309.714 93.232, 326.799 101.326 C 332.878 104.205, 334.382 104.498, 343 104.482 C 351.166 104.466, 353.303 104.090, 358.218 101.802 C 365.801 98.272, 372.977 91.394, 377.066 83.737 C 379.923 78.388, 380.457 76.276, 380.814 68.902 C 381.103 62.929, 380.747 58.641, 379.648 54.860 C 376.407 43.711, 366.339 33.590, 354.572 29.650 C 348.762 27.705, 337.253 27.579, 331.500 29.399 M 229.500 58.454 C 225.100 59.145, 217.675 60.703, 213 61.915 C 204.659 64.077, 185.267 71.348, 183.708 72.897 C 183.273 73.330, 190.246 86.378, 199.205 101.894 C 211.185 122.643, 215.891 129.969, 216.997 129.594 C 236.324 123.029, 249.610 121.104, 264.278 122.744 C 280.832 124.593, 295.620 130.003, 309.500 139.287 C 318.324 145.188, 331.735 159.358, 337.272 168.628 C 342.412 177.236, 348.374 192.640, 349.519 200.275 L 350.227 205 383.114 205 L 416 205 416 201.551 C 416 195.873, 412.091 177.387, 408.838 167.676 C 402.960 150.131, 395.343 135.875, 383.275 119.834 L 376.755 111.169 371.809 114.212 C 363.788 119.148, 352.863 122.143, 343 122.111 C 327.872 122.062, 315.534 117.168, 304.527 106.851 C 293.606 96.613, 288.098 84.648, 287.104 69 L 286.500 59.500 278.500 58.315 C 268.083 56.772, 239.698 56.853, 229.500 58.454 M 154.484 91.186 C 130.048 110.787, 111.484 136.904, 101.395 165.873 L 98.131 175.246 102.886 179.004 C 109.744 184.425, 114.643 190.511, 118.579 198.500 C 129.843 221.363, 125.089 246.654, 106.128 264.727 L 100.547 270.047 102.369 275.273 C 107.789 290.819, 121.008 312.812, 133.285 326.708 C 141.782 336.326, 158.366 351.045, 159.404 349.889 C 160.289 348.906, 192 294.002, 192 293.455 C 192 293.114, 189.038 289.835, 185.419 286.168 C 174.015 274.614, 166.631 261.830, 161.352 244.500 C 158.835 236.237, 158.611 234.148, 158.620 219 C 158.628 205.206, 158.982 201.224, 160.782 194.716 C 165.217 178.686, 173.904 163.431, 185.506 151.305 C 189.078 147.571, 192 144.277, 192 143.985 C 192 142.802, 160.258 88.586, 159.398 88.299 C 158.887 88.129, 156.676 89.428, 154.484 91.186 M 57.286 186.393 C 32.843 194.365, 22.507 222.758, 36.211 244.289 C 48.917 264.253, 78.436 267.410, 95.239 250.602 C 114.236 231.600, 108.525 199.400, 84.175 188.214 C 77.307 185.059, 64.116 184.166, 57.286 186.393 M 350.629 232.122 C 350.406 232.880, 349.265 237.483, 348.095 242.351 C 341.480 269.868, 321.840 293.774, 295.844 305.950 C 282.854 312.034, 274.324 314.107, 259.727 314.726 C 244.862 315.356, 235.201 314.081, 223.527 309.950 C 219.135 308.396, 215.462 307.209, 215.364 307.312 C 215.266 307.416, 207.737 320.325, 198.633 336 L 182.079 364.500 186.329 366.662 C 188.667 367.852, 195.103 370.399, 200.632 372.324 C 222.508 379.938, 246.186 383.024, 267.734 381.069 C 288.031 379.227, 287.189 379.592, 288.730 371.975 C 293.526 348.282, 312.364 330.462, 336.394 326.888 C 345.252 325.571, 355.448 326.890, 364.419 330.513 L 370.445 332.947 373.331 330.224 C 377.433 326.352, 387.974 312.673, 392.865 304.876 C 398.541 295.827, 406.243 279.210, 409.367 269.273 C 411.890 261.244, 415.158 246.281, 416.469 236.750 L 417.123 232 387.811 231.989 C 371.690 231.983, 356.820 231.700, 354.768 231.361 C 352.052 230.912, 350.925 231.119, 350.629 232.122 M 333.937 345.306 C 322.012 348.677, 312.213 357.503, 308.013 368.656 C 306.159 373.580, 305.876 375.996, 306.219 384 C 306.569 392.191, 307.052 394.332, 309.719 399.537 C 313.303 406.529, 319.567 412.688, 327.160 416.687 C 332.076 419.277, 333.373 419.500, 343.500 419.500 C 353.505 419.500, 355.012 419.249, 360.161 416.720 C 379.182 407.377, 387.079 384.354, 377.848 365.154 C 374.402 357.987, 365.605 349.753, 358.493 347.037 C 351.278 344.282, 340.298 343.508, 333.937 345.306 " stroke="none" fill="black" fill-rule="evenodd"/>
</svg>